<svg width="48" height="48" viewBox="0 0 48 48" fill="none" xmlns="http://www.w3.org/2000/svg">
<rect width="48" height="48" rx="8" fill="#D9F7D6"/>
<path d="M23.5455 30V28.8636H18.0455V27.6364H23.0909V26.4091H18.0455V25.1818H23.5455V24.0455H18.0455V19.6818C18.0455 18.9773 18.2045 18.3523 18.5227 17.8068C18.8447 17.2614 19.2955 16.8352 19.875 16.5284C20.4545 16.2178 21.1288 16.0625 21.8977 16.0625C22.4129 16.0625 22.892 16.1269 23.3352 16.2557C23.7784 16.3807 24.1705 16.5625 24.5114 16.8011C24.8561 17.0398 25.1345 17.3295 25.3466 17.6705L24.2841 18.5C24.0341 18.1553 23.7197 17.8845 23.3409 17.6875C22.9621 17.4905 22.5152 17.392 21.9999 17.392C21.4394 17.392 20.9545 17.5038 20.5454 17.7273C20.1363 17.947 19.8201 18.2614 19.5966 18.6705C19.3769 19.0795 19.267 19.5606 19.267 20.1136V24.0455H25.4091V25.1818H19.267V26.4091H25.4091V27.6364H19.267V28.8636H25.4091V30H23.5455ZM31.6818 30.2045C30.7538 30.2045 29.9356 30.0227 29.2273 29.6591C28.5189 29.2917 27.9659 28.7784 27.5682 28.1193C27.1705 27.4565 26.9716 26.6894 26.9716 25.8182V16.3636H28.1932V25.7727C28.1932 26.4129 28.3409 26.9697 28.6364 27.4432C28.9318 27.9167 29.3333 28.2841 29.8409 28.5455C30.3523 28.8068 30.9394 28.9375 31.6023 28.9375C32.2689 28.9375 32.8598 28.8087 33.375 28.5511C33.8902 28.2936 34.2936 27.9261 34.5852 27.4489C34.8769 26.9678 35.0227 26.4015 35.0227 25.75V16.3636H36.2443V25.8182C36.2443 26.6894 36.0436 27.4565 35.642 28.1193C35.2443 28.7784 34.6913 29.2917 33.983 29.6591C33.2746 30.0227 32.4603 30.2045 31.5398 30.2045H31.6818Z" fill="#101928"/>
</svg>
