<svg width="48" height="48" viewBox="0 0 48 48" fill="none" xmlns="http://www.w3.org/2000/svg">
<rect width="48" height="48" rx="8" fill="#F3E8FF"/>
<path d="M21.5455 30.2045C20.5758 30.2045 19.7102 30.0303 18.9489 29.6818C18.1913 29.3333 17.5833 28.8371 17.125 28.1932C16.6667 27.5455 16.4223 26.7746 16.392 25.8807H17.8011C17.8352 26.5379 18.0189 27.0985 18.3523 27.5625C18.6856 28.0265 19.1269 28.3807 19.6761 28.625C20.2292 28.8693 20.8542 28.9915 21.5511 28.9915C22.2784 28.9915 22.9205 28.8598 23.4773 28.5966C24.0379 28.3333 24.4754 27.9621 24.7898 27.4829C25.1042 27.0038 25.2614 26.4375 25.2614 25.7841C25.2614 25.1307 25.1042 24.5682 24.7898 24.0966C24.4754 23.625 24.0417 23.2614 23.4886 23.0057C22.9356 22.75 22.2992 22.6222 21.5795 22.6222H20.2159V21.3636H21.5795C22.2102 21.3636 22.7689 21.2443 23.2557 21.0057C23.7462 20.767 24.1269 20.4356 24.3977 20.0114C24.6686 19.5833 24.804 19.0871 24.804 18.5227C24.804 17.9583 24.6705 17.4697 24.4034 17.0568C24.1402 16.6402 23.7746 16.3182 23.3068 16.0909C22.8391 15.8598 22.3011 15.7443 21.6932 15.7443C21.0985 15.7443 20.5473 15.8674 20.0398 16.1136C19.5322 16.3561 19.1231 16.697 18.8125 17.1364C18.5019 17.572 18.3371 18.0814 18.3182 18.6648H16.9091C16.9242 17.7784 17.1553 17.017 17.6023 16.3807C18.0492 15.7443 18.6439 15.2595 19.3864 14.9261C20.1326 14.5928 20.9621 14.4261 21.875 14.4261C22.8068 14.4261 23.625 14.5985 24.3295 14.9432C25.0341 15.2879 25.5814 15.7614 25.9716 16.3636C26.3655 16.9621 26.5625 17.6439 26.5625 18.4091C26.5625 19.2689 26.3068 20.0076 25.7955 20.625C25.2841 21.2386 24.5947 21.6629 23.7273 21.8977V22.0114C24.7879 22.1894 25.6193 22.6269 26.2216 23.3239C26.8239 24.0208 27.125 24.8807 27.125 25.9034C27.125 26.7462 26.9053 27.5038 26.4659 28.1761C26.0303 28.8485 25.4261 29.3807 24.6534 29.7727C23.8807 30.161 22.9773 30.3447 21.9432 30.3523L21.5455 30.2045ZM30.5795 30V16.3636H33.3693C34.2215 16.3636 34.9583 16.5208 35.5795 16.8352C36.2045 17.1496 36.6857 17.5947 37.0227 18.1705C37.3598 18.7462 37.5284 19.4242 37.5284 20.2045C37.5284 20.9848 37.3598 21.6629 37.0227 22.2386C36.6857 22.8144 36.2045 23.2595 35.5795 23.5739C34.9583 23.8883 34.2215 24.0455 33.3693 24.0455H31.3466V22.7841H33.2386C33.8447 22.7841 34.3542 22.6818 34.767 22.4773C35.1799 22.2689 35.4924 21.9754 35.7045 21.5966C35.9205 21.2178 36.0284 20.7708 36.0284 20.2557C36.0284 19.7367 35.9205 19.2879 35.7045 18.9091C35.4924 18.5265 35.1799 18.2311 34.767 18.0227C34.3542 17.8106 33.8447 17.7045 33.2386 17.7045H31.8011V30H30.5795Z" fill="#101928"/>
</svg>
