<svg width="146" height="40" viewBox="0 0 146 40" fill="none" xmlns="http://www.w3.org/2000/svg">
    <g clip-path="url(#clip0_2190_14846)">
        <path d="M23.0635 40.0004H10.1603L23.0635 20.6455H35.9668L23.0635 40.0004Z" fill="#B87414" />
        <path d="M17.9033 0H30.8065L17.9033 20.6452H5L17.9033 0Z" fill="#17418A" />
    </g>
    <path
        d="M53.6069 29V11.5455H57.2972V25.9574H64.7802V29H53.6069ZM73.0707 29.2557C71.7468 29.2557 70.6019 28.9744 69.636 28.4119C68.6758 27.8437 67.9343 27.054 67.4116 26.0426C66.8888 25.0256 66.6275 23.8466 66.6275 22.5057C66.6275 21.1534 66.8888 19.9716 67.4116 18.9602C67.9343 17.9432 68.6758 17.1534 69.636 16.5909C70.6019 16.0227 71.7468 15.7386 73.0707 15.7386C74.3945 15.7386 75.5366 16.0227 76.4968 16.5909C77.4627 17.1534 78.207 17.9432 78.7298 18.9602C79.2525 19.9716 79.5139 21.1534 79.5139 22.5057C79.5139 23.8466 79.2525 25.0256 78.7298 26.0426C78.207 27.054 77.4627 27.8437 76.4968 28.4119C75.5366 28.9744 74.3945 29.2557 73.0707 29.2557ZM73.0877 26.4432C73.69 26.4432 74.1928 26.2727 74.5962 25.9318C74.9996 25.5852 75.3036 25.1136 75.5082 24.517C75.7184 23.9205 75.8235 23.2415 75.8235 22.4801C75.8235 21.7188 75.7184 21.0398 75.5082 20.4432C75.3036 19.8466 74.9996 19.375 74.5962 19.0284C74.1928 18.6818 73.69 18.5085 73.0877 18.5085C72.4798 18.5085 71.9684 18.6818 71.5536 19.0284C71.1445 19.375 70.8349 19.8466 70.6246 20.4432C70.4201 21.0398 70.3178 21.7188 70.3178 22.4801C70.3178 23.2415 70.4201 23.9205 70.6246 24.517C70.8349 25.1136 71.1445 25.5852 71.5536 25.9318C71.9684 26.2727 72.4798 26.4432 73.0877 26.4432ZM87.7724 34.1818C86.5962 34.1818 85.5877 34.0199 84.7468 33.696C83.9116 33.3778 83.2468 32.9432 82.7525 32.392C82.2582 31.8409 81.9371 31.2216 81.7894 30.5341L85.1474 30.0824C85.2496 30.3438 85.4116 30.5881 85.6332 30.8153C85.8548 31.0426 86.1474 31.2244 86.511 31.3608C86.8803 31.5028 87.3292 31.5739 87.8576 31.5739C88.6474 31.5739 89.2979 31.3807 89.8093 30.9943C90.3263 30.6136 90.5849 29.9744 90.5849 29.0767V26.6818H90.4315C90.2724 27.0455 90.0337 27.3892 89.7156 27.7131C89.3974 28.0369 88.9883 28.3011 88.4883 28.5057C87.9883 28.7102 87.3917 28.8125 86.6985 28.8125C85.7156 28.8125 84.8207 28.5852 84.0138 28.1307C83.2127 27.6705 82.5735 26.9687 82.0962 26.0256C81.6246 25.0767 81.3888 23.8778 81.3888 22.429C81.3888 20.946 81.6303 19.7074 82.1133 18.7131C82.5962 17.7187 83.2383 16.9744 84.0394 16.4801C84.8462 15.9858 85.7298 15.7386 86.69 15.7386C87.4229 15.7386 88.0366 15.8636 88.5309 16.1136C89.0252 16.358 89.4229 16.6648 89.7241 17.0341C90.0309 17.3977 90.2667 17.7557 90.4315 18.108H90.5678V15.9091H94.1729V29.1278C94.1729 30.2415 93.9002 31.1733 93.3548 31.9233C92.8093 32.6733 92.0536 33.2358 91.0877 33.6108C90.1275 33.9915 89.0224 34.1818 87.7724 34.1818ZM87.8491 26.0852C88.4343 26.0852 88.9286 25.9403 89.332 25.6506C89.7411 25.3551 90.0536 24.9347 90.2695 24.3892C90.4911 23.8381 90.6019 23.179 90.6019 22.4119C90.6019 21.6449 90.494 20.9801 90.2781 20.4176C90.0621 19.8494 89.7496 19.4091 89.3406 19.0966C88.9315 18.7841 88.4343 18.6278 87.8491 18.6278C87.2525 18.6278 86.7496 18.7898 86.3406 19.1136C85.9315 19.4318 85.6218 19.875 85.4116 20.4432C85.2013 21.0114 85.0962 21.6676 85.0962 22.4119C85.0962 23.1676 85.2013 23.821 85.4116 24.3722C85.6275 24.9176 85.9371 25.3409 86.3406 25.642C86.7496 25.9375 87.2525 26.0852 87.8491 26.0852ZM97.0621 29V15.9091H100.693V29H97.0621ZM98.886 14.2216C98.3462 14.2216 97.8832 14.0426 97.4968 13.6847C97.1161 13.321 96.9258 12.8864 96.9258 12.3807C96.9258 11.8807 97.1161 11.4517 97.4968 11.0938C97.8832 10.7301 98.3462 10.5483 98.886 10.5483C99.4258 10.5483 99.886 10.7301 100.267 11.0938C100.653 11.4517 100.846 11.8807 100.846 12.3807C100.846 12.8864 100.653 13.321 100.267 13.6847C99.886 14.0426 99.4258 14.2216 98.886 14.2216ZM103.669 29V11.5455H110.556C111.88 11.5455 113.007 11.7983 113.939 12.304C114.871 12.804 115.581 13.5 116.07 14.392C116.564 15.2784 116.811 16.3011 116.811 17.4602C116.811 18.6193 116.561 19.642 116.061 20.5284C115.561 21.4148 114.837 22.1051 113.888 22.5994C112.945 23.0937 111.803 23.3409 110.462 23.3409H106.073V20.3835H109.865C110.576 20.3835 111.161 20.2614 111.621 20.017C112.087 19.767 112.434 19.4233 112.661 18.9858C112.894 18.5426 113.01 18.0341 113.01 17.4602C113.01 16.8807 112.894 16.375 112.661 15.9432C112.434 15.5057 112.087 15.1676 111.621 14.929C111.155 14.6847 110.564 14.5625 109.848 14.5625H107.36V29H103.669ZM124.895 29.2557C123.549 29.2557 122.39 28.983 121.418 28.4375C120.452 27.8864 119.708 27.108 119.185 26.1023C118.662 25.0909 118.401 23.8949 118.401 22.5142C118.401 21.1676 118.662 19.9858 119.185 18.9688C119.708 17.9517 120.444 17.1591 121.392 16.5909C122.347 16.0227 123.466 15.7386 124.75 15.7386C125.614 15.7386 126.418 15.8778 127.162 16.1562C127.912 16.429 128.566 16.8409 129.123 17.392C129.685 17.9432 130.123 18.6364 130.435 19.4716C130.748 20.3011 130.904 21.2727 130.904 22.3864V23.3835H119.85V21.1335H127.486C127.486 20.6108 127.373 20.1477 127.145 19.7443C126.918 19.3409 126.603 19.0256 126.199 18.7983C125.801 18.5653 125.338 18.4489 124.81 18.4489C124.259 18.4489 123.77 18.5767 123.344 18.8324C122.924 19.0824 122.594 19.4205 122.355 19.8466C122.117 20.267 121.995 20.7358 121.989 21.2528V23.392C121.989 24.0398 122.108 24.5994 122.347 25.071C122.591 25.5426 122.935 25.9062 123.378 26.1619C123.821 26.4176 124.347 26.5455 124.955 26.5455C125.358 26.5455 125.728 26.4886 126.063 26.375C126.398 26.2614 126.685 26.0909 126.924 25.8636C127.162 25.6364 127.344 25.358 127.469 25.0284L130.827 25.25C130.657 26.0568 130.307 26.7614 129.779 27.3636C129.256 27.9602 128.58 28.4261 127.75 28.7614C126.926 29.0909 125.975 29.2557 124.895 29.2557ZM139.188 29.2557C137.847 29.2557 136.694 28.9716 135.728 28.4034C134.767 27.8295 134.029 27.0341 133.512 26.017C133 25 132.745 23.8295 132.745 22.5057C132.745 21.1648 133.003 19.9886 133.52 18.9773C134.043 17.9602 134.784 17.1676 135.745 16.5994C136.705 16.0256 137.847 15.7386 139.171 15.7386C140.313 15.7386 141.313 15.946 142.171 16.3608C143.029 16.7756 143.708 17.358 144.208 18.108C144.708 18.858 144.983 19.7386 145.034 20.75H141.608C141.512 20.0966 141.256 19.571 140.841 19.1733C140.432 18.7699 139.895 18.5682 139.23 18.5682C138.668 18.5682 138.176 18.7216 137.756 19.0284C137.341 19.3295 137.017 19.7699 136.784 20.3494C136.551 20.929 136.435 21.6307 136.435 22.4545C136.435 23.2898 136.549 24 136.776 24.5852C137.009 25.1705 137.336 25.6165 137.756 25.9233C138.176 26.2301 138.668 26.3835 139.23 26.3835C139.645 26.3835 140.017 26.2983 140.347 26.1278C140.682 25.9574 140.958 25.7102 141.174 25.3864C141.395 25.0568 141.54 24.6619 141.608 24.2017H145.034C144.978 25.2017 144.705 26.0824 144.216 26.8438C143.733 27.5994 143.066 28.1903 142.213 28.6165C141.361 29.0426 140.353 29.2557 139.188 29.2557Z"
        fill="#17418A" />
    <defs>
        <clipPath id="clip0_2190_14846">
            <rect width="40" height="40" fill="white" />
        </clipPath>
    </defs>
</svg>